<svg xmlns="http://www.w3.org/2000/svg" viewBox="0 0 99 35.807"><defs><style>.a{opacity:0.562;}.b{fill:#a457ff;}.c{fill:#4b5169;font-size:16px;font-family:Chalkboard;letter-spacing:0.1em;}</style></defs><g transform="translate(-216 -43.264)"><g class="a" transform="matrix(0.875, -0.485, 0.485, 0.875, 215, 54.968)"><path class="b" d="M83.458,185.8a8.613,8.613,0,0,0-14.35,0L65.312,191.6a5.212,5.212,0,0,0,.441,6.293,5.379,5.379,0,0,0,2.9,1.719,5.454,5.454,0,0,0,3.373-.315l.072-.031a10.8,10.8,0,0,1,8.444.031,5.454,5.454,0,0,0,2.165.449,5.536,5.536,0,0,0,1.208-.134,5.378,5.378,0,0,0,2.9-1.719,5.211,5.211,0,0,0,.442-6.294Zm0,0" transform="translate(-60.053 -169.751)"/><path class="b" d="M6.281,108.3A4.092,4.092,0,0,0,8.7,105.791a5.147,5.147,0,0,0-.094-3.615,5.276,5.276,0,0,0-2.4-2.743,4.21,4.21,0,0,0-3.508-.277,4.611,4.611,0,0,0-2.319,6.128,4.989,4.989,0,0,0,4.495,3.277A3.986,3.986,0,0,0,6.281,108.3Zm0,0" transform="translate(0 -92.265)"/><path class="b" d="M129.555,11.49c2.835,0,5.141-2.577,5.141-5.744S132.389,0,129.555,0s-5.141,2.577-5.141,5.746S126.72,11.49,129.555,11.49Zm0,0" transform="translate(-115.91)"/><path class="b" d="M287.291,50.455h0a4.266,4.266,0,0,0,1.324.21,5.312,5.312,0,0,0,4.851-3.744,5.532,5.532,0,0,0-.082-3.887,4.392,4.392,0,0,0-2.706-2.569,4.505,4.505,0,0,0-3.737.469A5.653,5.653,0,0,0,284.5,44,4.953,4.953,0,0,0,287.291,50.455Zm0,0" transform="translate(-264.768 -37.554)"/><path class="b" d="M384.333,171.817h0a4.8,4.8,0,0,0-6.518,1.369,4.585,4.585,0,0,0,.57,6.511,4.073,4.073,0,0,0,2.414.764,5.229,5.229,0,0,0,4.1-2.132A4.586,4.586,0,0,0,384.333,171.817Zm0,0" transform="translate(-350.982 -159.586)"/></g><text class="c" transform="translate(216 68)"><tspan x="0" y="0">LOVEPUPPY</tspan></text></g></svg>