<svg xmlns="http://www.w3.org/2000/svg" viewBox="0 0 15.143 13.25"><defs><style>.a{fill:#4b5169;}</style></defs><path class="a" d="M.541,62.434H14.6a.541.541,0,0,0,.541-.541V60.541A.541.541,0,0,0,14.6,60H.541A.541.541,0,0,0,0,60.541v1.352A.541.541,0,0,0,.541,62.434Zm0,5.408H14.6a.541.541,0,0,0,.541-.541V65.949a.541.541,0,0,0-.541-.541H.541A.541.541,0,0,0,0,65.949V67.3A.541.541,0,0,0,.541,67.842Zm0,5.408H14.6a.541.541,0,0,0,.541-.541V71.357a.541.541,0,0,0-.541-.541H.541A.541.541,0,0,0,0,71.357v1.352A.541.541,0,0,0,.541,73.25Z" transform="translate(0 -60)"/></svg>