<svg xmlns="http://www.w3.org/2000/svg" viewBox="0 0 50 50.51"><defs><style>.a{fill:#aae8eb;}.b{fill:#fff;}</style></defs><g transform="translate(-1335.767 -36.252)"><path class="a" d="M22.149,1.033c9-1.865,23.74,1.071,27.482,15.077,2.544,9.562-1.023,20.354-5.555,26.584-8.1,11.11-19.676,8.134-21.927,7.539C12.3,47.694-.275,36.663.514,23.252,1.274,10.318,13.934,2.739,22.149,1.033Z" transform="translate(1335.288 35.723)"/><path class="b" d="M22.154,1.095,17.482.017a1.085,1.085,0,0,0-1.235.624L14.091,5.672A1.075,1.075,0,0,0,14.4,6.93l2.722,2.228a16.648,16.648,0,0,1-7.96,7.96L6.935,14.4a1.077,1.077,0,0,0-1.258-.31L.646,16.242a1.091,1.091,0,0,0-.629,1.24L1.1,22.154a1.078,1.078,0,0,0,1.051.836A20.841,20.841,0,0,0,22.99,2.146,1.077,1.077,0,0,0,22.154,1.095Z" transform="translate(1349.01 50.011)"/></g></svg>