<svg xmlns="http://www.w3.org/2000/svg" viewBox="0 0 17 13"><defs><style>.a{fill:#fff;}</style></defs><g transform="translate(0 -64)"><path class="a" d="M6.375,64H1.062A1.073,1.073,0,0,0,0,65.083v3.25a1.073,1.073,0,0,0,1.062,1.083,1.073,1.073,0,0,0,1.062-1.083V66.167h4.25a1.084,1.084,0,0,0,0-2.167Z"/><path class="a" d="M294.375,64h-5.312a1.084,1.084,0,0,0,0,2.167h4.25v2.167a1.063,1.063,0,1,0,2.125,0v-3.25A1.073,1.073,0,0,0,294.375,64Z" transform="translate(-278.438)"/><path class="a" d="M294.375,288a1.073,1.073,0,0,0-1.062,1.083v2.167h-4.25a1.084,1.084,0,0,0,0,2.167h5.312a1.073,1.073,0,0,0,1.063-1.083v-3.25A1.073,1.073,0,0,0,294.375,288Z" transform="translate(-278.438 -216.417)"/><path class="a" d="M6.375,291.25H2.125v-2.167A1.073,1.073,0,0,0,1.062,288,1.073,1.073,0,0,0,0,289.083v3.25a1.073,1.073,0,0,0,1.062,1.083H6.375a1.084,1.084,0,0,0,0-2.167Z" transform="translate(0 -216.417)"/></g></svg>