<svg xmlns="http://www.w3.org/2000/svg" viewBox="0 0 16 13"><defs><style>.a{fill:#fff;}</style></defs><path class="a" d="M5.973,17.486,3.5,19.9H.667a.658.658,0,0,0-.667.65v3.9a.658.658,0,0,0,.667.65H3.5L5.973,27.5a.669.669,0,0,0,1.138-.46v-9.1A.669.669,0,0,0,5.973,17.486ZM12.454,16.1a.682.682,0,0,0-.931.188.645.645,0,0,0,.193.908,6.242,6.242,0,0,1,0,10.593.645.645,0,0,0-.193.907.684.684,0,0,0,.931.188,7.535,7.535,0,0,0,0-12.785Zm.879,6.392a4.972,4.972,0,0,0-2.382-4.231.674.674,0,0,0-.92.2.648.648,0,0,0,.206.9,3.652,3.652,0,0,1,0,6.252.648.648,0,0,0-.206.9.675.675,0,0,0,.92.2A4.971,4.971,0,0,0,13.333,22.5ZM9.4,20.413a.678.678,0,0,0-.906.256.642.642,0,0,0,.263.883,1.055,1.055,0,0,1,0,1.885.642.642,0,0,0-.263.883.677.677,0,0,0,.906.256,2.34,2.34,0,0,0,0-4.164Z" transform="translate(0 -15.996)"/></svg>